<svg xmlns="http://www.w3.org/2000/svg" xmlns:xlink="http://www.w3.org/1999/xlink" viewBox="0,0,256,256" width="64px" height="64px" fill-rule="nonzero"><defs><linearGradient x1="32" y1="7.5" x2="32" y2="56.752" gradientUnits="userSpaceOnUse" id="color-1"><stop offset="0" stop-color="#ffffff"></stop><stop offset="1" stop-color="#ffffff"></stop></linearGradient><linearGradient x1="25" y1="21.5" x2="25" y2="28.5" gradientUnits="userSpaceOnUse" id="color-2"><stop offset="0" stop-color="#0089fb"></stop><stop offset="1" stop-color="#abffc6"></stop></linearGradient><linearGradient x1="39" y1="21.5" x2="39" y2="28.5" gradientUnits="userSpaceOnUse" id="color-3"><stop offset="0" stop-color="#0089fb"></stop><stop offset="1" stop-color="#abffc6"></stop></linearGradient><linearGradient x1="32" y1="29.625" x2="32" y2="37.375" gradientUnits="userSpaceOnUse" id="color-4"><stop offset="0" stop-color="#0089fb"></stop><stop offset="1" stop-color="#abffc6"></stop></linearGradient><linearGradient x1="32" y1="7.5" x2="32" y2="56.752" gradientUnits="userSpaceOnUse" id="color-5"><stop offset="0" stop-color="#ffffff"></stop><stop offset="1" stop-color="#ffffff"></stop></linearGradient></defs><g fill="#535971" fill-rule="nonzero" stroke="none" stroke-width="1" stroke-linecap="butt" stroke-linejoin="miter" stroke-miterlimit="10" stroke-dasharray="" stroke-dashoffset="0" font-family="none" font-weight="none" font-size="none" text-anchor="none" style="mix-blend-mode: normal"><path d="M0,256v-256h256v256z" id="bgRectangle"></path></g><g fill="none" fill-rule="nonzero" stroke="none" stroke-width="1" stroke-linecap="butt" stroke-linejoin="miter" stroke-miterlimit="10" stroke-dasharray="" stroke-dashoffset="0" font-family="none" font-weight="none" font-size="none" text-anchor="none" style="mix-blend-mode: normal"><g transform="scale(4,4)"><path d="M32,56c-1.077,0 -2.046,-0.555 -2.591,-1.484l-3.694,-6.314c-0.759,-1.299 -2.099,-2.185 -3.675,-2.432c-9.479,-1.482 -16.37,-9.85 -16.027,-19.462c0.358,-10.095 9.07,-18.308 19.419,-18.308h13.137c10.349,0 19.061,8.213 19.419,18.308c0.343,9.611 -6.549,17.979 -16.028,19.462c-1.575,0.247 -2.915,1.133 -3.674,2.432l-3.694,6.313c-0.546,0.93 -1.515,1.485 -2.592,1.485zM25.432,10c-9.285,0 -17.1,7.348 -17.421,16.378c-0.306,8.602 5.858,16.089 14.339,17.415c2.173,0.341 4.028,1.579 5.092,3.398l3.694,6.313c0.261,0.448 0.691,0.496 0.864,0.496c0.173,0 0.603,-0.048 0.864,-0.496l3.694,-6.313c1.063,-1.819 2.919,-3.058 5.091,-3.398c8.481,-1.327 14.646,-8.813 14.34,-17.415c-0.321,-9.03 -8.135,-16.378 -17.421,-16.378z" fill="url(#color-1)"></path><path d="M25,21.998c-1.65685,0 -3,1.34315 -3,3c0,1.65685 1.34315,3 3,3c1.65685,0 3,-1.34315 3,-3c0,-1.65685 -1.34315,-3 -3,-3z" fill="url(#color-2)"></path><path d="M39,21.998c-1.65685,0 -3,1.34315 -3,3c0,1.65685 1.34315,3 3,3c1.65685,0 3,-1.34315 3,-3c0,-1.65685 -1.34315,-3 -3,-3z" fill="url(#color-3)"></path><path d="M36,30h-8c-0.552,0 -1,0.446 -1,0.998v1c0,2.761 2.239,5 5,5c2.761,0 5,-2.239 5,-5v-1c0,-0.552 -0.448,-0.998 -1,-0.998z" fill="url(#color-4)"></path><path d="M26,12h12v2h-12z" fill="url(#color-5)"></path></g></g></svg>